<svg width="151" height="92" fill="none" xmlns="http://www.w3.org/2000/svg"><path fill="#D4B26B" d="M0 0h151v92H0z"/><mask id="a" maskUnits="userSpaceOnUse" x="0" y="0" width="151" height="92"><path fill="#fff" d="M0 0h151v92H0z"/></mask><g mask="url(#a)" fill-rule="evenodd" clip-rule="evenodd" fill="#F2C94C"><path opacity=".219" d="M-13.445 157.124c46.267 0 83.774-37.488 83.774-83.73 0-46.244-37.507-83.731-83.774-83.731S-97.22 27.15-97.22 73.393s37.507 83.731 83.774 83.731z"/><path opacity=".269" d="M98.253 203.64c41.698 0 75.5-33.785 75.5-75.46 0-41.676-33.802-75.461-75.5-75.461-41.697 0-75.5 33.785-75.5 75.461 0 41.675 33.803 75.46 75.5 75.46z"/></g></svg>